<?xml version="1.0" encoding="UTF-8"?>
<svg id="Lager_1" data-name="Lager 1" xmlns="http://www.w3.org/2000/svg" version="1.1" viewBox="0 0 165 30">
  <defs>
    <style>
      .cls-1 {
        fill: #74a3ff;
        stroke-width: 0px;
      }
    </style>
  </defs>
  <path class="cls-1" d="M16.61,22.02v-.62c1.99-.18,2.06-.31,2.04-2.66l.02-8.97c-1.99,4.02-5.2,10.31-6.04,12.25h-.63c-.83-2-3.57-8.05-5.41-12.03-.41,7.7-.44,9.43-.44,9.85.02,1.23.63,1.41,2.28,1.56v.62H2.68v-.62c1.41-.13,1.99-.4,2.19-1.58.15-.97.17-1.76.8-9.78.1-1.14-.15-1.52-2.28-1.69v-.62h4.22l5.37,11.15,5.75-11.15h4.25v.62c-2.09.22-2.35.42-2.31,1.96l.1,8.44c.1,2.35.17,2.46,2.31,2.66v.62h-6.46Z"/>
  <path class="cls-1" d="M24.19,22.02v-.62c1.53-.13,1.7-.24,1.7-1.74v-4.53c0-1.36-.07-1.45-1.53-1.67v-.53c1.26-.2,2.4-.48,3.45-.88v7.61c0,1.5.17,1.6,1.75,1.74v.62h-5.37ZM26.71,9.9c-.68,0-1.29-.55-1.29-1.17,0-.7.61-1.21,1.31-1.21s1.24.51,1.24,1.21c0,.62-.56,1.17-1.26,1.17Z"/>
  <path class="cls-1" d="M42.44,21.51c-1.17.15-2.48.44-3.71.77v-1.69c-1.31.99-2.38,1.69-3.71,1.69-1.63,0-3.03-.9-3.03-3.3v-4.27c0-1.19-.19-1.32-.8-1.43l-.68-.11v-.57c1.04-.04,2.65-.26,3.47-.4-.07.7-.07,1.76-.07,3.21v2.99c0,1.94,1.12,2.49,2.21,2.49.9,0,1.8-.35,2.62-1.06v-5.12c0-1.19-.29-1.34-1.12-1.45l-.78-.09v-.57c1.55-.07,3.25-.31,3.81-.4v7.37c0,1.1.19,1.25,1.12,1.3l.68.02v.62Z"/>
  <path class="cls-1" d="M50.62,22.02v-.62c1.41-.13,1.55-.29,1.55-1.78v-3.63c0-1.54-.61-2.57-2.21-2.57-1,0-1.94.53-2.69,1.14v5.15c0,1.52.15,1.56,1.58,1.69v.62h-5.24v-.62c1.6-.15,1.75-.24,1.75-1.69v-4.53c0-1.43-.17-1.5-1.48-1.69v-.57c1.19-.18,2.38-.46,3.4-.88v1.74c.49-.31,1.02-.64,1.65-1.01.68-.4,1.31-.66,2.01-.66,1.94,0,3.16,1.3,3.16,3.43v4.18c0,1.5.15,1.56,1.55,1.69v.62h-5.03Z"/>
  <path class="cls-1" d="M79.6,8.34c-1.53.09-2.09.44-2.14,1.45-.02.51-.07,1.43-.07,3.45v2.37c0,2.24-.29,3.96-1.7,5.3-1.14,1.08-2.79,1.41-4.47,1.41-1.41,0-2.91-.26-3.98-1.01-1.46-1.01-2.16-2.53-2.16-5.1v-5.61c0-1.98-.19-2.11-2.14-2.26v-.62h6.38v.62c-1.94.11-2.14.29-2.14,2.26v5.5c0,3.21,1.68,4.97,4.59,4.97,3.45,0,4.54-1.94,4.54-5.58v-2.24c0-2.02-.07-2.86-.12-3.45-.07-.99-.63-1.36-2.43-1.45v-.62h5.83v.62Z"/>
  <path class="cls-1" d="M86.59,22.02v-.62c1.41-.13,1.55-.29,1.55-1.78v-3.63c0-1.54-.61-2.57-2.21-2.57-1,0-1.94.53-2.7,1.14v5.15c0,1.52.15,1.56,1.58,1.69v.62h-5.24v-.62c1.6-.15,1.75-.24,1.75-1.69v-4.53c0-1.43-.17-1.5-1.48-1.69v-.57c1.19-.18,2.38-.46,3.4-.88v1.74c.49-.31,1.02-.64,1.65-1.01.68-.4,1.31-.66,2.01-.66,1.94,0,3.16,1.3,3.16,3.43v4.18c0,1.5.15,1.56,1.55,1.69v.62h-5.03Z"/>
  <path class="cls-1" d="M93.03,22.02v-.62c1.53-.13,1.7-.24,1.7-1.74v-4.53c0-1.36-.07-1.45-1.53-1.67v-.53c1.26-.2,2.4-.48,3.45-.88v7.61c0,1.5.17,1.6,1.75,1.74v.62h-5.37ZM95.55,9.9c-.68,0-1.29-.55-1.29-1.17,0-.7.61-1.21,1.31-1.21s1.24.51,1.24,1.21c0,.62-.56,1.17-1.26,1.17Z"/>
  <path class="cls-1" d="M110.19,12.96c-1.31.15-1.48.33-2.11,1.65-.8,1.76-2.18,4.68-3.45,7.65h-.7c-1.02-2.53-2.21-5.15-3.35-7.72-.56-1.27-.75-1.41-2.01-1.58v-.59h4.95v.59c-1.33.15-1.38.31-1,1.25.61,1.52,1.63,3.85,2.31,5.39.87-1.96,1.67-3.76,2.21-5.17.41-1.08.34-1.32-1.26-1.47v-.59h4.42v.59Z"/>
  <path class="cls-1" d="M119.51,20.15c-1.55,1.76-3.25,2.13-4.03,2.13-2.96,0-4.76-2.2-4.76-4.73,0-1.5.58-2.88,1.58-3.85,1.02-1.03,2.35-1.6,3.62-1.6,2.11,0,3.71,1.65,3.71,3.41-.02.44-.1.64-.49.73-.49.09-3.59.29-6.48.37-.07,2.95,1.92,4.16,3.64,4.16,1,0,1.92-.37,2.82-1.12l.39.51ZM115.33,12.94c-1.12,0-2.21.95-2.55,2.73,1.36,0,2.72,0,4.15-.07.44,0,.58-.11.58-.44.02-1.17-.83-2.22-2.18-2.22Z"/>
  <path class="cls-1" d="M126.67,22.02h-5.58v-.62c1.53-.13,1.68-.24,1.68-1.67v-4.57c0-1.45-.1-1.52-1.51-1.67v-.55c1.19-.18,2.28-.44,3.42-.9v2.42c.85-1.14,1.87-2.35,3.08-2.35.9,0,1.41.51,1.41,1.06,0,.51-.39.99-.83,1.21-.24.13-.44.11-.63-.04-.36-.33-.66-.55-1.09-.55-.51,0-1.41.68-1.94,1.8v4.13c0,1.45.12,1.56,1.99,1.69v.62Z"/>
  <path class="cls-1" d="M136.31,14.98c-.44-1.28-1.07-2.15-2.55-2.15-.85,0-1.5.55-1.5,1.43,0,.95.7,1.39,2.06,1.96,2.09.9,3.13,1.56,3.13,3.01,0,2.02-2.04,3.06-3.96,3.06-1.26,0-2.38-.35-2.89-.62-.12-.64-.34-1.85-.44-2.57l.7-.11c.44,1.41,1.29,2.55,2.99,2.55.92,0,1.7-.57,1.7-1.5,0-.99-.66-1.5-1.94-2.07-1.7-.75-3.08-1.45-3.08-3.03s1.5-2.84,3.79-2.84c1.02,0,1.85.22,2.33.29.07.53.24,1.91.36,2.44l-.7.15Z"/>
  <path class="cls-1" d="M139,22.02v-.62c1.53-.13,1.7-.24,1.7-1.74v-4.53c0-1.36-.07-1.45-1.53-1.67v-.53c1.26-.2,2.4-.48,3.45-.88v7.61c0,1.5.17,1.6,1.75,1.74v.62h-5.37ZM141.52,9.9c-.68,0-1.29-.55-1.29-1.17,0-.7.61-1.21,1.31-1.21s1.24.51,1.24,1.21c0,.62-.56,1.17-1.26,1.17Z"/>
  <path class="cls-1" d="M150.21,22c-.41.2-.8.29-1.04.29-1.55,0-2.38-.86-2.38-2.62v-6.4h-1.68l-.1-.26.66-.64h1.12v-1.85c.46-.44,1.17-1.01,1.63-1.45l.36.04c-.05.92-.07,2.2-.07,3.25h2.77c.22.22.15.7-.15.9h-2.62v5.63c0,1.78.78,2.11,1.41,2.11.58,0,1.14-.2,1.48-.35l.22.57-1.6.77Z"/>
  <path class="cls-1" d="M164,12.96c-1.26.18-1.53.35-2.14,1.6-.61,1.23-1.26,2.73-2.94,6.55-1.58,3.52-2.01,4.88-2.4,6.02-.15.46-.41.57-.73.57-.78,0-1.48-.51-1.48-1.06,0-.29.17-.48.53-.77.78-.55,1.33-1.08,1.63-1.63.51-.92.87-1.69,1-1.98.1-.33.1-.53-.05-.9-.95-2.51-2.26-5.21-2.99-6.79-.53-1.21-.75-1.47-2.09-1.63v-.59h4.9v.59c-1.12.15-1.24.37-.92,1.19l2.36,5.41c.68-1.52,1.65-3.96,2.16-5.34.29-.84.12-1.08-1.29-1.25v-.59h4.44v.59Z"/>
</svg>